<svg xmlns="http://www.w3.org/2000/svg" xmlns:svg="http://www.w3.org/2000/svg" id="svg1872" width="48" height="48" version="1.1"><metadata id="metadata1877"/><g id="layer1"><rect id="rect6346" width="48" height="48" rx="0" ry="0" style="fill:none"/><path id="path9896" d="m33.75 39c11-7 11-23 0-30" style="fill:none;stroke-linecap:round;stroke-linejoin:round;stroke-width:0;stroke:#fff"/><path id="path3659" d="m4.0217 16.109-0.021739 15.891h10l10 10 0.021739-35.891-10 10h-10z" style="fill-rule:evenodd;fill:#fff;stroke-linecap:round;stroke-linejoin:round;stroke-width:0;stroke:#fff"/><path id="path8122" d="m31 16c5 4 5 12 0 16" style="fill:none;stroke-linecap:round;stroke-linejoin:round;stroke-width:0;stroke:#fff"/><path id="path1880" d="m4.0217 16.109-0.021739 15.891h10l10 10 0.021739-35.891-10 10h-10z" style="fill-rule:evenodd;fill-opacity:1;fill:#636366;stroke:none;stroke-opacity:1;stroke-width:1;stroke-miterlimit:4;stroke-dasharray:none"/><path id="path7235" d="m31 16c5 4 5 12 0 16" style="fill:none;stroke-linecap:round;stroke-linejoin:round;stroke-width:4;stroke:#636366"/><path id="path9009" d="m33.75 39c11-7 11-23 0-30" style="fill:none;stroke-linecap:round;stroke-linejoin:round;stroke-width:4;stroke:#636366"/><path id="path10785" d="m27 20c2 3 2 5 0 8" style="fill:none;stroke-linecap:round;stroke-linejoin:round;stroke-width:4;stroke:#636366"/></g></svg>